<svg id="Layer_1" data-name="Layer 1" xmlns="http://www.w3.org/2000/svg" viewBox="0 0 20 20"><defs><style>.cls-1{fill:#001234;}.cls-2{fill:none;}</style></defs><path class="cls-1" d="M19,3.86a1.69,1.69,0,0,0-2.31.66,1.07,1.07,0,0,1-1,.68.79.79,0,0,1-.6-.29,4.19,4.19,0,0,0-3.21-1.53A4.15,4.15,0,0,0,8.7,4.91a.77.77,0,0,1-.55.29.79.79,0,0,1-.61-.29A4.15,4.15,0,0,0,4.36,3.38a4.5,4.5,0,0,0-4,2.43,1.7,1.7,0,0,0,3,1.65c.38-.68.83-.68,1-.68a.76.76,0,0,1,.58.28A4.23,4.23,0,0,0,8.15,8.6a4.17,4.17,0,0,0,3.18-1.54.67.67,0,0,1,1.09,0A4.22,4.22,0,0,0,15.64,8.6a4.48,4.48,0,0,0,4-2.43A1.7,1.7,0,0,0,19,3.86Z"/><path class="cls-1" d="M19,11.88a1.69,1.69,0,0,0-2.31.66,1.07,1.07,0,0,1-1,.68.79.79,0,0,1-.6-.29,4.19,4.19,0,0,0-3.21-1.53A4.15,4.15,0,0,0,8.7,12.93a.77.77,0,0,1-.55.29.79.79,0,0,1-.61-.29A4.15,4.15,0,0,0,4.36,11.4a4.48,4.48,0,0,0-4,2.43,1.7,1.7,0,0,0,3,1.65c.38-.68.83-.68,1-.68a.72.72,0,0,1,.58.28,4.22,4.22,0,0,0,3.24,1.54,4.17,4.17,0,0,0,3.18-1.54.67.67,0,0,1,1.09,0,4.22,4.22,0,0,0,3.22,1.54,4.5,4.5,0,0,0,4-2.43A1.69,1.69,0,0,0,19,11.88Z"/><rect id="Rectangle_249" data-name="Rectangle 249" class="cls-2" width="20" height="20"/></svg>