<svg xmlns="http://www.w3.org/2000/svg" viewBox="0 0 37 37"><rect x="0.36" y="0.36" width="36.28" height="36.28" rx="8.66" fill="#9ffff0"/><path d="M28,37H9a9,9,0,0,1-9-9V9A9,9,0,0,1,9,0H28a9,9,0,0,1,9,9V28A9,9,0,0,1,28,37ZM9,2A7.07,7.07,0,0,0,2,9V28A7.07,7.07,0,0,0,9,35H28A7.07,7.07,0,0,0,35,28V9A7.07,7.07,0,0,0,28,2Z" fill="#428dff"/><path d="M20.89,22.59a1.55,1.55,0,0,1-.85.11,2.26,2.26,0,0,1-1.34-1.08c-.4-.61-.83-1.2-1.19-1.81a7.79,7.79,0,0,1-1.23-4V6.45a1.23,1.23,0,0,0-.58-1.07,1.19,1.19,0,0,1,.67-.16,1.22,1.22,0,0,1,1.07,1.23v9.39a7.78,7.78,0,0,0,1.22,4c.37.61.8,1.2,1.19,1.81a2.43,2.43,0,0,0,1,1Z" fill="#d0ddf0"/><path d="M24,24.33l-.06,0a12.81,12.81,0,0,1-1.65,1.05,2.24,2.24,0,0,0-1.17,2V32H20V27.39a2.27,2.27,0,0,1,1.18-2,13.53,13.53,0,0,0,1.65-1.05,1,1,0,0,1,1.19,0Z" fill="#7fa8f6"/><path d="M26.7,21.39A.87.87,0,0,0,27,22.57l0,0A7.53,7.53,0,0,0,28,23a1.2,1.2,0,0,1-.74,2.28L27,25.15a1.15,1.15,0,0,0,.64-.83A1.2,1.2,0,0,0,26.82,23a6.9,6.9,0,0,1-.89-.36.87.87,0,0,1-.41-1.16l0,0a5.58,5.58,0,0,0,.43-.93,38.92,38.92,0,0,0,1.27-4.06q.27-1,.51-2.07a3.88,3.88,0,0,0,.21-2.1,1.18,1.18,0,0,0-.5-.62,1.16,1.16,0,0,1,.83-.16h0a1.29,1.29,0,0,1,.81.77,3.88,3.88,0,0,1-.22,2.1q-.24,1-.51,2.07a41.41,41.41,0,0,1-1.26,4.06,7.84,7.84,0,0,1-.43.93Z" fill="#7fa8f6"/><path d="M25.54,21.39a.87.87,0,0,0,.35,1.18l0,0a8.76,8.76,0,0,0,.89.37,1.19,1.19,0,0,1,.78,1.36,1.15,1.15,0,0,1-.64.83,8.75,8.75,0,0,1-1.82-.82,1,1,0,0,0-1.14,0s0,0,0,0a1,1,0,0,0-1.19,0,15.94,15.94,0,0,1-1.65,1.06,2.22,2.22,0,0,0-1.18,2V32H17.44V27.64A1.62,1.62,0,0,0,16,26c-.62-.08-1.49-.23-2.75-.51-3-.67-5-4-5.94-5.78A1.35,1.35,0,0,1,7.86,18l0,0L8,17.91a1.35,1.35,0,0,1,1.77.57c.1.19.31.54.53.91,0,.08.1.15.14.23a.55.55,0,0,0,1-.08c.1-.25.2-.5.26-.67a1.1,1.1,0,0,1,1.42-.64l.07,0h0a1.07,1.07,0,0,1,.57,1.18,6.82,6.82,0,0,1-1.24,1.82.53.53,0,0,0,0,.75l0,0a6,6,0,0,0,2.17,1.14,3,3,0,0,0,.67.08,1.49,1.49,0,0,0,1.51-1.46,1.44,1.44,0,0,0-.2-.76,10.76,10.76,0,0,1-1.58-5.2V11.46a1.15,1.15,0,0,0-1.07-1.14,7.16,7.16,0,0,1-3.91-1.24,1.3,1.3,0,0,1-.27-1.82L10,7.12a1.16,1.16,0,0,1,.34-.24,1.29,1.29,0,0,1,1.44.19A4.22,4.22,0,0,0,13.56,8a4.8,4.8,0,0,0,.64.12.84.84,0,0,0,.92-.76.19.19,0,0,0,0-.08V6.38a1.15,1.15,0,0,1,.34-.82,1,1,0,0,1,.23-.18,1.24,1.24,0,0,1,.58,1.07v9.39a7.79,7.79,0,0,0,1.23,4c.36.61.79,1.2,1.19,1.81A2.26,2.26,0,0,0,20,22.7a1.55,1.55,0,0,0,.85-.11,1.21,1.21,0,0,0,.3.11,2,2,0,0,0,1.5-.46A6.26,6.26,0,0,0,24.82,20a14.62,14.62,0,0,0,.67-1.65,1.17,1.17,0,0,0-.66-1.46,6.33,6.33,0,0,1-3.12-3,1.22,1.22,0,0,1-.16-.62,1.26,1.26,0,0,1,.71-1.14l.1-.05a1.3,1.3,0,0,1,1.58.54,5.31,5.31,0,0,0,1.39,1.56c.08,0,.15.11.23.15a.71.71,0,0,0,1-.23.64.64,0,0,0,.1-.24c.12-.57.21-1.09.29-1.52a1.14,1.14,0,0,1,.53-.77,1.2,1.2,0,0,1,.51.62,4,4,0,0,1-.22,2.11c-.16.69-.33,1.38-.51,2.06A40.58,40.58,0,0,1,26,20.46a6.09,6.09,0,0,1-.44.93Z" fill="#dfe3ee"/><path d="M27,25.15a1.17,1.17,0,0,1-.88.08,8.34,8.34,0,0,1-2.08-.9,1,1,0,0,1,1.14,0A8.3,8.3,0,0,0,27,25.15Z" fill="#dfe3ee"/><path d="M24.36,6.61A1.39,1.39,0,1,1,23,5.22a1.38,1.38,0,0,1,1.38,1.39Z" fill="#dfe3ee"/><path d="M8.2,9.84A1.38,1.38,0,1,1,6.82,8.45,1.38,1.38,0,0,1,8.2,9.84Z" fill="#dfe3ee"/><path d="M27.59,8.92A.92.92,0,1,1,26.67,8a.92.92,0,0,1,.92.93Z" fill="#dfe3ee"/><path d="M10.51,14a.92.92,0,1,1-.92-.93h0A.93.93,0,0,1,10.51,14Z" fill="#dfe3ee"/><path d="M15,8a3.44,3.44,0,0,0,.64.12.84.84,0,0,0,.92-.75v-1a1.15,1.15,0,0,1,.34-.82L17,5.47a1,1,0,0,0-.61-.24,1.09,1.09,0,0,0-.66.15,1.08,1.08,0,0,0-.24.18,1.18,1.18,0,0,0-.33.82v.89a.84.84,0,0,1-.35.68L15,8Z" fill="#fff"/><path d="M11.61,7a1.28,1.28,0,0,0-1.27-.07,1.16,1.16,0,0,0-.34.24A1.31,1.31,0,0,0,10,9l.14.12a7.19,7.19,0,0,0,3.91,1.24,1.15,1.15,0,0,1,1.07,1.14v4.38A10.76,10.76,0,0,0,16.71,21a1.45,1.45,0,0,1-.52,2l-.2.1.12,0a3.07,3.07,0,0,0,.67.08,1.49,1.49,0,0,0,1.51-1.46A1.43,1.43,0,0,0,18.1,21a10.67,10.67,0,0,1-1.59-5.2V11.46a1.15,1.15,0,0,0-1.06-1.14,7.22,7.22,0,0,1-3.92-1.24,1.3,1.3,0,0,1-.26-1.82.53.53,0,0,1,.12-.14A.92.92,0,0,1,11.61,7Z" fill="#fff"/><path d="M18.82,32V27.64A1.61,1.61,0,0,0,17.41,26c-.61-.08-1.48-.23-2.74-.51-3-.67-5.05-4-5.95-5.78A1.35,1.35,0,0,1,9.24,18l0,0A1.36,1.36,0,0,0,8,17.91L7.88,18l0,0a1.35,1.35,0,0,0-.51,1.76c.89,1.79,2.93,5.12,5.94,5.78,1.26.28,2.13.43,2.74.51a1.62,1.62,0,0,1,1.42,1.6V32Z" fill="#fff"/><path d="M13.18,26a7,7,0,0,1-2.83-1.47,12,12,0,0,1-2.08-2.31A18.35,18.35,0,0,1,6.92,20l.83-.42A15.75,15.75,0,0,0,9,21.67a10.86,10.86,0,0,0,1.92,2.14,6,6,0,0,0,2.44,1.27Z" fill="#fff"/><path d="M24.27,10.31l-.09,0-.07,0-.07.06a.47.47,0,0,0,0,.65h0l.07.06.07,0,.09,0h.09a.47.47,0,0,0,.46-.46.4.4,0,0,0-.13-.33A.47.47,0,0,0,24.27,10.31Z" fill="#428dff"/><path d="M11.89,16.76a.45.45,0,0,0,.47-.45.47.47,0,0,0-.46-.47h0a.47.47,0,0,0-.46.46A.46.46,0,0,0,11.89,16.76Z" fill="#428dff"/><path d="M10.13,23.24a.48.48,0,0,0-.47.46.51.51,0,0,0,.15.33.48.48,0,0,0,.34.14h.09l.09,0,.07,0,.07-.06a.52.52,0,0,0,.12-.33.85.85,0,0,0,0-.17A.46.46,0,0,0,10.13,23.24Z" fill="#428dff"/><path d="M27.56,20.62a38.93,38.93,0,0,0,1.28-4.1c.18-.7.35-1.39.51-2.08,0-.13.06-.25.1-.37a3.43,3.43,0,0,0,.11-2A1.75,1.75,0,0,0,28.44,11l-.06,0a1.62,1.62,0,0,0-1.9,1.28v0c-.08.42-.17.93-.29,1.49A.29.29,0,0,1,26,14a.27.27,0,0,1-.23,0,4.83,4.83,0,0,1-1.48-1.57,1.74,1.74,0,0,0-3,1.74,6.73,6.73,0,0,0,3.36,3.17.71.71,0,0,1,.39.88,12.74,12.74,0,0,1-.64,1.58,5.78,5.78,0,0,1-2,2.07,1.61,1.61,0,0,1-1.15.39,1.79,1.79,0,0,1-1.05-.88c-.14-.22-.3-.45-.45-.67-.24-.37-.5-.74-.72-1.12a7.07,7.07,0,0,1-1.16-3.73V6.45a1.67,1.67,0,0,0-1.5-1.69,1.62,1.62,0,0,0-1.73,1.5s0,.08,0,.12v.89a.38.38,0,0,1-.12.29.39.39,0,0,1-.29.09,3.92,3.92,0,0,1-2.16-.92,1.76,1.76,0,0,0-2.36,2.6l.14.12A7.73,7.73,0,0,0,14,10.79a.68.68,0,0,1,.64.68v4.37a11.22,11.22,0,0,0,1.64,5.43,1,1,0,0,1,0,1,1.06,1.06,0,0,1-.92.53h0a4.73,4.73,0,0,1-2.55-1.12.09.09,0,0,1,0-.06,0,0,0,0,1,0-.05c1.23-1.43,1.32-1.88,1.35-2a1.54,1.54,0,0,0-.75-1.65l-.06,0a1.52,1.52,0,0,0-1.25,0,1.55,1.55,0,0,0-.89.9c-.06.17-.15.41-.25.66a.07.07,0,0,1-.06,0,.06.06,0,0,1-.07,0c-.27-.44-.54-.89-.67-1.13A1.83,1.83,0,0,0,6.92,20h0A17,17,0,0,0,8.27,22.2l.28.39a.45.45,0,0,0,.63.1h0A.48.48,0,0,0,9.28,22c-.09-.11-.17-.24-.26-.36a16.4,16.4,0,0,1-1.27-2.13.9.9,0,0,1,.37-1.17.85.85,0,0,1,.68-.1.9.9,0,0,1,.56.43c.14.24.41.71.69,1.16a1,1,0,0,0,1.77-.15c.11-.26.2-.51.27-.68a.6.6,0,0,1,.36-.37.59.59,0,0,1,.45,0l0,0a.6.6,0,0,1,.33.67A6.08,6.08,0,0,1,12.12,21a1,1,0,0,0-.23.75,1,1,0,0,0,.38.69,5.64,5.64,0,0,0,3.12,1.32h0a2,2,0,0,0,1.72-1,1.91,1.91,0,0,0,0-1.92,10.19,10.19,0,0,1-1.52-5V11.46a1.62,1.62,0,0,0-1.5-1.6,6.77,6.77,0,0,1-3.67-1.15.84.84,0,0,1-.13-1.17.83.83,0,0,1,1.17-.13h0a4.81,4.81,0,0,0,2.67,1.15,1.3,1.3,0,0,0,1.44-1.3V6.38a.71.71,0,0,1,.69-.7h.06a.74.74,0,0,1,.64.76v9.39a8.1,8.1,0,0,0,1.29,4.21c.23.39.5.78.75,1.16.15.22.3.43.44.66a2.69,2.69,0,0,0,1.65,1.28A2.45,2.45,0,0,0,23,22.62a6.73,6.73,0,0,0,2.29-2.42,16.06,16.06,0,0,0,.69-1.71,1.62,1.62,0,0,0-.93-2,5.9,5.9,0,0,1-2.89-2.75.87.87,0,0,1-.1-.39.82.82,0,0,1,1.53-.41,5.72,5.72,0,0,0,1.77,1.86,1.19,1.19,0,0,0,1.63-.38,1.37,1.37,0,0,0,.15-.38c.12-.57.21-1.09.3-1.54a.7.7,0,0,1,.77-.56.8.8,0,0,1,.52.48,2.56,2.56,0,0,1-.12,1.45c0,.13-.08.27-.11.4-.16.69-.32,1.37-.5,2.06a41.27,41.27,0,0,1-1.25,4,5.22,5.22,0,0,1-.41.86,1.35,1.35,0,0,0-.1,1,1.38,1.38,0,0,0,.69.81c.31.14.62.27.94.38a.74.74,0,0,1,.42,1,.73.73,0,0,1-.87.44,7.89,7.89,0,0,1-2-.85,1.51,1.51,0,0,0-1.71.06,12.74,12.74,0,0,1-1.6,1,2.69,2.69,0,0,0-1.41,2.37v4.15H17.9v-3.9a2.07,2.07,0,0,0-1.82-2.06c-.68-.08-1.59-.25-2.7-.5a5.32,5.32,0,0,1-1.56-.65.49.49,0,0,0-.63.15.46.46,0,0,0,.12.63l0,0a6.85,6.85,0,0,0,1.84.75c1.14.25,2.08.42,2.78.51a1.18,1.18,0,0,1,1,1.15V32a.45.45,0,0,0,.45.47h3.7a.47.47,0,0,0,.46-.46h0V27.39a1.78,1.78,0,0,1,.93-1.56,15.42,15.42,0,0,0,1.71-1.09.56.56,0,0,1,.66,0,9.36,9.36,0,0,0,2.2,1,1.68,1.68,0,0,0,2.05-1.16,1.66,1.66,0,0,0-1-2,7.81,7.81,0,0,1-.84-.35.45.45,0,0,1-.22-.25.35.35,0,0,1,0-.3,7,7,0,0,0,.46-1Z" fill="#428dff"/><path d="M23,4.76a1.84,1.84,0,1,0,1.3.54A1.85,1.85,0,0,0,23,4.76Zm0,2.77a.92.92,0,1,1,.65-.27A.89.89,0,0,1,23,7.53Z" fill="#428dff"/><path d="M6.82,11.69A1.85,1.85,0,1,0,5,9.84H5A1.85,1.85,0,0,0,6.82,11.69Zm0-2.77a.92.92,0,1,1-.92.92h0a.92.92,0,0,1,.92-.92Z" fill="#428dff"/><path d="M28.05,8.92a1.39,1.39,0,1,0-1.38,1.38,1.38,1.38,0,0,0,1.38-1.38Zm-1.84,0a.45.45,0,0,1,.46-.46.46.46,0,0,1,.46.46.47.47,0,0,1-.46.46.46.46,0,0,1-.46-.46Z" fill="#428dff"/><path d="M11,14a1.38,1.38,0,1,0-1.38,1.39h0A1.38,1.38,0,0,0,11,14ZM9.13,14a.46.46,0,0,1,.46-.46.47.47,0,1,1-.46.46Z" fill="#428dff"/></svg>