<svg xmlns="http://www.w3.org/2000/svg" viewBox="0 0 37 37"><rect x="0.36" y="0.36" width="36.28" height="36.28" rx="8.66" fill="#9ffff0"/><path d="M28,37H9a9,9,0,0,1-9-9V9A9,9,0,0,1,9,0H28a9,9,0,0,1,9,9V28A9,9,0,0,1,28,37ZM9,2A7.07,7.07,0,0,0,2,9V28A7.07,7.07,0,0,0,9,35H28A7.07,7.07,0,0,0,35,28V9A7.07,7.07,0,0,0,28,2Z" fill="#428dff"/><path d="M16.43,19.52s-3,2.7-4.82,2.23,0-1.84,0-1.84S9.3,19,11.15,17.6v.08a.1.1,0,0,0-.05,0c-1.76-1.36.51-2.27.51-2.27s-1.85-1.38,0-1.85c1.41-.35,4.51,1.56,5,2.05Z" fill="#d0ddf0"/><path d="M23.35,26a5.44,5.44,0,0,1-5.07,6c-.25,0-.5,0-.75-.05a5.35,5.35,0,0,0,4-3.3,4.24,4.24,0,0,0,.73-.67A4,4,0,0,0,23.35,26Z" fill="#7fa8f6"/><path d="M26.58,11.44c0,1.16-.56,2.11-1,2.08a.76.76,0,0,1-.37-.16,3.47,3.47,0,0,0-.46-.27,3.18,3.18,0,0,0,.43-1.65c-.46-.46-2.77-.73-3.69-1.65a6.25,6.25,0,0,1-.8-1.34,3.8,3.8,0,0,0-3.82-2.31c-.1,0-.2-.42-.31-.69a4.76,4.76,0,0,1,1.24-.23c.15,0,.3.92.46.92a3.77,3.77,0,0,1,3.81,2.31,6.25,6.25,0,0,0,.8,1.34c.92.93,3.23,1.19,3.69,1.65Z" fill="#7fa8f6"/><path d="M17.36,10.76A3,3,0,0,0,17.22,12,2.18,2.18,0,0,0,18,13.53c.87.66,2.08.44,3.09.74a5.08,5.08,0,0,1,1.58,9c-.84.62-2.42.73-3.93,1-1.9.29-3.68.77-3.7,2.73a2.48,2.48,0,0,0,2.3,2.77h.08a5.91,5.91,0,0,0,4.12-1,5.35,5.35,0,0,1-4,3.3c-2.64-.3-5.22-2.09-5.23-5a4.43,4.43,0,0,1,1.11-2.74c.53-.69,1.19-1.35,1.77-2.08.18-.24.36-.48.52-.74a4.86,4.86,0,0,0,.51-1,3.62,3.62,0,0,0,.2-.85c0-.13,0-.26,0-.4a4.36,4.36,0,0,0-.12-1,5.16,5.16,0,0,0-.21-.77,9.2,9.2,0,0,0-.44-1.09c-.13-.27-.28-.53-.42-.8s-.38-.69-.57-1a1,1,0,0,0-.1-.17c-.11-.21-.23-.4-.33-.59a6.56,6.56,0,0,1-1-3.85,4.7,4.7,0,0,1,3.38-4.38c.1.27.21.69.31.69a3.78,3.78,0,0,1,3.81,2.31,6.25,6.25,0,0,0,.8,1.34c.92.92,3.23,1.19,3.69,1.65a3.18,3.18,0,0,1-.43,1.65c-1.91-1-4.28-.3-6.26-1.14-.18-.08-1.26-.85-1.15-1.2Z" fill="#dfe3ee"/><path d="M8.59,12.37A1.62,1.62,0,1,1,7,10.76a1.62,1.62,0,0,1,1.61,1.61Z" fill="#dfe3ee"/><path d="M10,6.61a.94.94,0,0,1-.93.92A.93.93,0,1,1,10,6.6Z" fill="#dfe3ee"/><path d="M30.27,28.52a1.62,1.62,0,0,1-3.23,0,1.63,1.63,0,0,1,1.62-1.62h0A1.62,1.62,0,0,1,30.27,28.52Z" fill="#dfe3ee"/><path d="M31.66,24.14a.93.93,0,1,1-.93-.93.93.93,0,0,1,.93.93Z" fill="#dfe3ee"/><path d="M24.74,19.13a5.15,5.15,0,0,1-2.06,4.09c-.84.62-2.43.72-3.93,1a3.24,3.24,0,0,0,.31-.24c1-.81,3.63-3.75,1-9.56,0-.1-.09-.2-.14-.3a6,6,0,0,1,1.2.2,5.06,5.06,0,0,1,3.64,4.86Z" fill="#7fa8f6"/><path d="M23.35,19.13a5.11,5.11,0,0,1-2.05,4.09,5.42,5.42,0,0,1-2.24.72c1-.82,3.63-3.76,1-9.57a5.07,5.07,0,0,1,3.31,4.76Z" fill="#d0ddf0"/><path d="M21.05,8.91A.93.93,0,1,1,20.12,8a.93.93,0,0,1,.93.92Z" fill="#fff"/><path d="M20.12,8.45a.46.46,0,0,1-.46.46.48.48,0,0,1-.42-.27A1,1,0,0,1,19.85,8,.45.45,0,0,1,20.12,8.45Z" fill="#fff"/><path d="M12.78,13.59a2.57,2.57,0,0,0-1.17-.06c-1.84.46,0,1.84,0,1.84s-2.27.91-.5,2.27c-1.75,1.36.5,2.27.5,2.27s-1.84,1.38,0,1.84a2.36,2.36,0,0,0,1.21-.05c-1.52-.51.18-1.79.18-1.79s-2.26-.91-.51-2.27c-1.76-1.36.51-2.27.51-2.27s-1.68-1.26-.22-1.78Z" fill="#fff"/><path d="M18.13,31.82a4.29,4.29,0,0,1-.6.13c-2.64-.3-5.23-2.09-5.23-5a4.37,4.37,0,0,1,1.11-2.74c.53-.69,1.19-1.35,1.76-2.08a7.67,7.67,0,0,0,.53-.74,4.86,4.86,0,0,0,.51-1,3.62,3.62,0,0,0,.2-.85,2.61,2.61,0,0,0,0-.4,4.34,4.34,0,0,0-.11-1,5.16,5.16,0,0,0-.21-.77,7.83,7.83,0,0,0-.45-1.09c-.13-.27-.27-.53-.41-.8s-.38-.69-.57-1l-.1-.17c-.12-.21-.23-.4-.33-.59A6.65,6.65,0,0,1,13.2,9.83a4.71,4.71,0,0,1,3.39-4.38c.07.18.13.42.19.56a4.51,4.51,0,0,0-2.21,3.82,6.6,6.6,0,0,0,1,3.84c.1.19.21.39.33.59a1.62,1.62,0,0,0,.1.18l.57,1c.14.26.28.53.41.8a7.36,7.36,0,0,1,.45,1.09,5.16,5.16,0,0,1,.21.77,4.28,4.28,0,0,1,.11,1,2.55,2.55,0,0,1,0,.39,3.59,3.59,0,0,1-.2.86,4.86,4.86,0,0,1-.51,1,7.67,7.67,0,0,1-.53.74c-.57.72-1.23,1.39-1.76,2.08A4.44,4.44,0,0,0,13.66,27c0,2.61,2.12,4.32,4.47,4.85Z" fill="#fff"/><path d="M18.28,32.46a7.71,7.71,0,0,1-3.1-.7,6.11,6.11,0,0,1-2.48-2A4.93,4.93,0,0,1,11.84,27h.92a4.13,4.13,0,0,0,.7,2.26,6,6,0,0,0,4.82,2.31Z" fill="#fff"/><path d="M7.47,9.29a.46.46,0,0,0,.11-.64.46.46,0,1,0-.75.53h0A.46.46,0,0,0,7.47,9.29Z" fill="#428dff"/><path d="M29.15,22.67a.48.48,0,0,0,.12-.65.47.47,0,1,0-.76.54h0A.47.47,0,0,0,29.15,22.67Z" fill="#428dff"/><path d="M20.59,8.91a.47.47,0,1,1-.47-.46.47.47,0,0,1,.47.46Z" fill="#428dff"/><path d="M4.9,12.37A2.08,2.08,0,1,0,7,10.3,2.08,2.08,0,0,0,4.9,12.37ZM7,11.22a1.16,1.16,0,1,1-1.16,1.15h0A1.16,1.16,0,0,1,7,11.22Z" fill="#428dff"/><path d="M9.05,5.22A1.39,1.39,0,1,0,10.44,6.6h0A1.38,1.38,0,0,0,9.05,5.22Zm0,1.85a.47.47,0,0,1,0-.93.46.46,0,0,1,.46.46.44.44,0,0,1-.13.33.47.47,0,0,1-.33.14Z" fill="#428dff"/><path d="M26.58,28.52a2.08,2.08,0,1,0,2.08-2.08,2.08,2.08,0,0,0-2.08,2.08Zm2.08-1.15a1.15,1.15,0,1,1-1.15,1.15h0A1.14,1.14,0,0,1,28.66,27.37Z" fill="#428dff"/><path d="M30.73,22.75a1.39,1.39,0,1,0,1.39,1.39,1.38,1.38,0,0,0-1.39-1.39Zm0,1.85a.47.47,0,1,1,.47-.46.47.47,0,0,1-.47.46Z" fill="#428dff"/><path d="M14.67,30.57a.48.48,0,0,0-.16.08.37.37,0,0,0-.13.12.48.48,0,0,0-.08.35.46.46,0,0,0,.23.3.52.52,0,0,0,.37,0l.08,0,.14-.11a.56.56,0,0,1,.05-.08.56.56,0,0,0,0-.36.51.51,0,0,0-.07-.15A.48.48,0,0,0,14.67,30.57Z" fill="#428dff"/><path d="M11.5,13.08c-.67.17-1.06.48-1.15.94a1.54,1.54,0,0,0,.48,1.25A1.79,1.79,0,0,0,10,16.45a1.43,1.43,0,0,0,.43,1.19A1.45,1.45,0,0,0,10,18.83,1.81,1.81,0,0,0,10.83,20a1.54,1.54,0,0,0-.48,1.25c.09.46.48.77,1.15.94a2.22,2.22,0,0,0,.57.07,6.65,6.65,0,0,0,3.41-1.41,11.77,11.77,0,0,1-1.52,2c-.31.35-.63.72-.92,1.09a4.63,4.63,0,0,0-.34,5.8,3.9,3.9,0,0,0,.31.4.44.44,0,0,0,.62.08s0,0,0,0a.47.47,0,0,0,0-.63c-.08-.11-.18-.22-.25-.33a4.12,4.12,0,0,1-.7-2.25,3.86,3.86,0,0,1,1-2.46c.26-.35.56-.69.88-1.05s.61-.68.89-1.05l1.1.73a.46.46,0,0,0,.52-.76h0l-1.07-.71a5,5,0,0,0,.57-1.16l2,.4h.08a.46.46,0,0,0,.46-.47.47.47,0,0,0-.37-.45l-1.95-.39a.38.38,0,0,0,0-.15c0-.1,0-.21,0-.32a6.48,6.48,0,0,0-.07-.77.39.39,0,0,0,0-.36l2.05-.82a.46.46,0,0,0-.32-.87h0l-2,.82a10.24,10.24,0,0,0-.45-1.08l1.49-.74a.46.46,0,0,0-.41-.83l-1.5.75c-.15-.27-.29-.53-.44-.78l-.14-.25,1.15-.77a.45.45,0,0,0,.14-.63.46.46,0,0,0-.64-.14h0l-1.09.72a6.09,6.09,0,0,1-1-3.57,4.36,4.36,0,0,1,3.9-4.13l.05.12c.13.38.26.78.66.78a3.26,3.26,0,0,1,3.3,1.87l.12.21a4.34,4.34,0,0,1,.23.43,3.71,3.71,0,0,0,.64,1,6.46,6.46,0,0,0,2.59,1.23q.49.15,1,.33A2.21,2.21,0,0,1,25.61,13L25.5,13a7.32,7.32,0,0,0-3.92-1,8.54,8.54,0,0,1-2.88-.48,3.68,3.68,0,0,1-.88-.74.46.46,0,0,0-.89-.18,3,3,0,0,0,.81,3.28,3.64,3.64,0,0,0,1.94.63.74.74,0,0,0,0,.14c1.28,2.55,1.61,4.74,1,6.51a4.78,4.78,0,0,1-2.11,2.57c-1.44.21-4,.64-4,3.17a2.93,2.93,0,0,0,2.71,3.23,6.15,6.15,0,0,0,5.27-1.78,5.36,5.36,0,0,1-1.07,1.71,4.55,4.55,0,0,1-3.19,1.47h0a6.91,6.91,0,0,1-1.7-.24.49.49,0,0,0-.57.31.44.44,0,0,0,.28.56l0,0a8,8,0,0,0,1.94.27h0a5.47,5.47,0,0,0,3.86-1.76A6.23,6.23,0,0,0,23.81,26h0a.45.45,0,0,0-.49-.43.46.46,0,0,0-.43.49,3.49,3.49,0,0,1-1,1.66,5.18,5.18,0,0,1-4.53,1.54,2,2,0,0,1-1.89-2.31c0-1.48,1.22-2,3.3-2.27l.8-.12A7.51,7.51,0,0,0,23,23.58a5.54,5.54,0,0,0-1.72-9.76,7.52,7.52,0,0,0-1.26-.2,3.32,3.32,0,0,1-1.68-.46,1.72,1.72,0,0,1-.61-1.23,4.48,4.48,0,0,0,.64.43,9,9,0,0,0,3.2.56,6.51,6.51,0,0,1,3.45.82,1.31,1.31,0,0,0,.6.24.9.9,0,0,0,.68-.27A3.3,3.3,0,0,0,27,11.44a.51.51,0,0,0-.13-.33,3.73,3.73,0,0,0-1.49-.64,5.94,5.94,0,0,1-2.2-1,2.75,2.75,0,0,1-.47-.76c-.09-.18-.17-.34-.27-.5L22.38,8a4.11,4.11,0,0,0-3.84-2.33l-.05-.15c-.13-.39-.26-.8-.69-.78a5.26,5.26,0,0,0-5.06,5.07,7,7,0,0,0,.74,3.42,3.13,3.13,0,0,0-2-.17Zm11.21,2.59a4.62,4.62,0,0,1,.42,6.51,5,5,0,0,1-.72.66,4.82,4.82,0,0,1-2,.63,5.73,5.73,0,0,0,1.19-2c.67-1.92.38-4.21-.85-6.83a1,1,0,0,1,.24.05,4.73,4.73,0,0,1,1.74,1Zm-11,5.64c-.38-.1-.47-.21-.47-.23s.29-.54.63-.8a.46.46,0,0,0,.09-.65.43.43,0,0,0-.2-.15c-.25-.1-.84-.44-.88-.78s.16-.42.35-.58a.57.57,0,0,0,.23-.12.49.49,0,0,0,0-.7.41.41,0,0,0-.25-.15c-.18-.16-.37-.38-.34-.58s.55-.64.88-.77a.47.47,0,0,0,.26-.6.43.43,0,0,0-.15-.2c-.34-.25-.67-.66-.64-.8s.11-.14.47-.23a3.23,3.23,0,0,1,2.71,1,19.57,19.57,0,0,1,1.09,2.14l-2.09-1.19a.46.46,0,0,0-.63.17.47.47,0,0,0,.18.63h0L15.26,18l-2.18.63a.46.46,0,0,0-.32.57.47.47,0,0,0,.44.33.27.27,0,0,0,.13,0L16,18.76c0,.12,0,.25,0,.37s0,.13,0,.2c-.91.77-3,2.29-4.23,2Z" fill="#428dff"/></svg>