<svg xmlns="http://www.w3.org/2000/svg" viewBox="0 0 37 37"><rect x="0.36" y="0.36" width="36.28" height="36.28" rx="8.66" fill="#9ffff0"/><path d="M28,37H9a9,9,0,0,1-9-9V9A9,9,0,0,1,9,0H28a9,9,0,0,1,9,9V28A9,9,0,0,1,28,37ZM9,2A7.07,7.07,0,0,0,2,9V28A7.07,7.07,0,0,0,9,35H28A7.07,7.07,0,0,0,35,28V9A7.07,7.07,0,0,0,28,2Z" fill="#428dff"/><path d="M9.34,24.31a5.17,5.17,0,0,0,.23,3,.24.24,0,0,0,.32.08.34.34,0,0,0,.08-.09,4.21,4.21,0,0,1,1.2-1.39" fill="#d0ddf0"/><path d="M15.85,8s-1.32-2.2-9.11-2.75a.22.22,0,0,0-.24.22.25.25,0,0,0,.06.18,13.54,13.54,0,0,1,3.71,6.54" fill="#d0ddf0"/><path d="M22.08,19.13a4,4,0,0,1,2,2,.23.23,0,0,0,.31.1.29.29,0,0,0,.11-.11,6.33,6.33,0,0,0,.15-3.22l-1.83-.81Z" fill="#a0bef3"/><path d="M31.2,11.83a3.62,3.62,0,0,1-.06.46,6.83,6.83,0,0,1-.18.9,8.07,8.07,0,0,1-.29.87,5.74,5.74,0,0,1-2.06,2.68,8.88,8.88,0,0,1-4.4,1.33c-.52,0-1.05,0-1.58,0h.2a8.88,8.88,0,0,0,4.39-1.33,5.74,5.74,0,0,0,2.06-2.68,6.34,6.34,0,0,0,.29-.87c.08-.3.14-.6.19-.9l.06-.46a.23.23,0,0,0,0-.16c-.37-.54-3-3.92-10.43-4.14,8.5-.2,11.42,3.56,11.82,4.14a.29.29,0,0,1,0,.16Z" fill="#7fa8f6"/><path d="M29.82,11.83l-.06.46c-.05.3-.11.6-.19.9a8.07,8.07,0,0,1-.29.87,5.79,5.79,0,0,1-2.05,2.68,8.93,8.93,0,0,1-4.4,1.32l-.3,0L19.36,18h0l-.47,0a6.46,6.46,0,0,0-2.4.62,3.81,3.81,0,0,0-1.76,4.83,2.7,2.7,0,0,0,.76.92l.29.21.49.32.28.17a.22.22,0,0,0,.19,0,14.5,14.5,0,0,1,3.41-.45c.7,0,1.5,0,2.4.05a.23.23,0,0,1,.22.24.21.21,0,0,1-.11.19c-1.28.79-4,2.9-3.61,6.5a.22.22,0,0,1-.2.26.2.2,0,0,1-.18-.06,8,8,0,0,1-1-1.14A9.1,9.1,0,0,1,16,27.13l-.15,0a13.51,13.51,0,0,1-4.69-1.23,5.35,5.35,0,0,1-.64-.41,6.9,6.9,0,0,1-2.12-2.67C7,19.76,8,16,9.55,13.26A12.47,12.47,0,0,1,11.14,11a10.76,10.76,0,0,1,7.51-3.47l.69,0h0c7.44.21,10.06,3.6,10.43,4.14a.22.22,0,0,1,0,.16Z" fill="#dfe3ee"/><path d="M20.13,24.66a14.5,14.5,0,0,0-3.41.45.22.22,0,0,1-.19,0l-.28-.17A18,18,0,0,1,20.13,24.66Z" fill="#dfe3ee"/><path d="M22.53,18.08a10.93,10.93,0,0,1-1.28,0L18.87,18l.47,0h0Z" fill="#dfe3ee"/><path d="M22.85,16.65c0,.77-.21,3.17-3.17,5.4a.23.23,0,0,1-.37-.24c.28-1.07.66-3.22-.39-4.63a.22.22,0,0,1,0-.32.22.22,0,0,1,.11-.05l3.51-.39a.24.24,0,0,1,.26.21h0Z" fill="#dfe3ee"/><path d="M27,10.81a.93.93,0,0,1-1.86,0,.93.93,0,1,1,1.86,0Z" fill="#fff"/><path d="M26.09,10.35a.47.47,0,0,1-.46.46.45.45,0,0,1-.42-.27.92.92,0,0,1,.61-.62A.46.46,0,0,1,26.09,10.35Z" fill="#fff"/><path d="M10.25,12.14a10.11,10.11,0,0,0-.7,1.13C8,16,7,19.75,8.41,22.79a7,7,0,0,0,1,1.58l-.08-.06a5.21,5.21,0,0,0,.24,3,.24.24,0,0,0,.32.08.24.24,0,0,0,.08-.09,6.48,6.48,0,0,1,.69-1,7,7,0,0,1,.07-2l.08.06a7.14,7.14,0,0,1-1-1.59c-1.4-3-.37-6.76,1.14-9.52a13.18,13.18,0,0,1,.71-1.12A13.54,13.54,0,0,0,8,5.67a.23.23,0,0,1,0-.3l-1.2-.1a.24.24,0,0,0-.25.22.31.31,0,0,0,.07.18A13.54,13.54,0,0,1,10.25,12.14Z" fill="#fff"/><path d="M17.25,8l-.07.05A11.54,11.54,0,0,1,20,7.55l.62,0c-.42,0-.86,0-1.31,0h0l-.69,0a11.2,11.2,0,0,0-1.62.2,1.86,1.86,0,0,1,.23.26Z" fill="#fff"/><path d="M8,23a8.34,8.34,0,0,1-.7-3.11,11.38,11.38,0,0,1,.38-3.13A16,16,0,0,1,9.14,13l.81.45A15.62,15.62,0,0,0,8.56,17a11.11,11.11,0,0,0-.35,2.87,7.25,7.25,0,0,0,.62,2.75Z" fill="#fff"/><path d="M26.56,10.81a.47.47,0,1,1-.93,0,.46.46,0,0,1,.46-.46h0A.46.46,0,0,1,26.56,10.81Z" fill="#428dff"/><path d="M7.57,19.58l.08,0h.1a.51.51,0,0,0,.33-.13.4.4,0,0,0,.1-.15.46.46,0,0,0-.07-.49A.42.42,0,0,0,8,18.74a.45.45,0,0,0-.51.05.5.5,0,0,0,0,.68h0l.07.06Z" fill="#428dff"/><path d="M9.74,12.06c-.21.32-.42.64-.6,1a16,16,0,0,0-1.48,3.7l-.11.47a.45.45,0,0,0,.35.55.47.47,0,0,0,.56-.35l.1-.44A15.62,15.62,0,0,1,10,13.49c.17-.3.35-.6.55-.89a.42.42,0,0,0,.22-.32,11.55,11.55,0,0,1,.76-.94A10.38,10.38,0,0,1,18.67,8c8.45-.41,11.54,3.15,12.06,3.85,0,.11,0,.23,0,.35s-.1.52-.17.79a6.84,6.84,0,0,0-2.1-.34.47.47,0,0,0,0,.94,5.28,5.28,0,0,1,1.81.29,5.24,5.24,0,0,1-1.88,2.45,8.36,8.36,0,0,1-4.17,1.25c-.33,0-.65,0-.95,0a4.36,4.36,0,0,0,.07-1.3.47.47,0,0,0-.53-.39.46.46,0,0,0-.4.52s.31,2.43-2.46,4.8c.27-1.35.38-3.41-.94-4.73a.46.46,0,0,0-.65,0,.45.45,0,0,0,0,.66,3.57,3.57,0,0,1,.3.38,6.9,6.9,0,0,0-2.36.64,4.49,4.49,0,0,0-2.32,3.45A3.91,3.91,0,0,0,14,23a3.78,3.78,0,0,1-1.17-1.59,3.91,3.91,0,0,1,.6-3.36c2.61-4.34,8.35-4,8.41-4a.47.47,0,1,0,.07-.93c-.26,0-6.37-.43-9.28,4.41A4.81,4.81,0,0,0,12,21.7a5.68,5.68,0,0,0,3.18,3s0,0,0,0c.26.19.52.37.79.53l.39.26h0l.05,0a.35.35,0,0,0,.11,0h.21a15.8,15.8,0,0,1,5.08-.45,7.37,7.37,0,0,0-3.3,5.93,8.5,8.5,0,0,1-2.06-4v0l-.07-.16-.13-.12-.18-.07h-.23a13,13,0,0,1-4.45-1.17,4,4,0,0,1-.59-.38,6.6,6.6,0,0,1-2-2.49,8,8,0,0,1-.51-1.66.47.47,0,0,0-.92.16A9,9,0,0,0,8,23a9,9,0,0,0,.86,1.43c-.1.64-.31,2.54.63,3.48A.47.47,0,0,0,9.8,28h.08a.48.48,0,0,0,.34-.25,5,5,0,0,1,1-1.37,14.06,14.06,0,0,0,4.41,1.13,9,9,0,0,0,3.22,5.07.48.48,0,0,0,.65-.12.53.53,0,0,0,.07-.35c-.85-4.7,3.73-6.85,3.92-6.94a.46.46,0,0,0,.23-.62.44.44,0,0,0-.37-.26,18.83,18.83,0,0,0-6.65.32l-.24-.15c-.24-.15-.47-.31-.7-.48a2.46,2.46,0,0,1-.89-2.25A3.51,3.51,0,0,1,16.68,19,6,6,0,0,1,19,18.48a7.6,7.6,0,0,1-.33,3.81.46.46,0,0,0,.27.59.45.45,0,0,0,.42,0,9.63,9.63,0,0,0,3.07-3.12,3.34,3.34,0,0,1,1.34,1.91.46.46,0,0,0,.56.34.48.48,0,0,0,.22-.12c.91-.91.74-2.73.64-3.43a8.27,8.27,0,0,0,3.68-1.3,6.83,6.83,0,0,0,2.72-4.76c0-.19.06-.38.08-.57a.43.43,0,0,0-.07-.29c-.12-.2-3.05-4.89-13-4.41A11.48,11.48,0,0,0,16,7.51c-.64-.69-2.91-2.36-9.93-2.75a.47.47,0,0,0-.46.3.47.47,0,0,0,.15.53A13.13,13.13,0,0,1,9.74,12.06Zm.07,14.58a4.6,4.6,0,0,1-.12-1.28,6.33,6.33,0,0,0,.56.47l.13.09a5,5,0,0,0-.57.72Zm14.46-6.26a3.41,3.41,0,0,0-1.42-1.49c0-.11.09-.22.13-.33h.35c.29,0,.61,0,.92,0h0a5.74,5.74,0,0,1,0,1.85ZM15,7.85a11.14,11.14,0,0,0-4.2,2.87c-.12.13-.24.26-.35.4A14,14,0,0,0,7.33,5.78c4.8.41,6.87,1.47,7.67,2.07Z" fill="#428dff"/><path d="M24.53,13a.47.47,0,0,0-.63.2h0a2.24,2.24,0,0,0,.1,2.48,3.14,3.14,0,0,0,.92.82.47.47,0,0,0,.44-.83,1.45,1.45,0,0,1-.69-1.94.54.54,0,0,0-.14-.73Z" fill="#428dff"/><path d="M25.78,15.09a2.78,2.78,0,0,0,.92.82.42.42,0,0,0,.21.06.47.47,0,0,0,.47-.47.46.46,0,0,0-.24-.41,1.45,1.45,0,0,1-.69-1.94l.05-.1a.46.46,0,0,0-.18-.63.45.45,0,0,0-.63.18v0a2.24,2.24,0,0,0,.1,2.48Z" fill="#428dff"/></svg>