<svg xmlns="http://www.w3.org/2000/svg" viewBox="0 0 37 37"><rect x="0.36" y="0.36" width="36.28" height="36.28" rx="8.66" fill="#9ffff0"/><path d="M28,37H9a9,9,0,0,1-9-9V9A9,9,0,0,1,9,0H28a9,9,0,0,1,9,9V28A9,9,0,0,1,28,37ZM9,2A7.07,7.07,0,0,0,2,9V28A7.07,7.07,0,0,0,9,35H28A7.07,7.07,0,0,0,35,28V9A7.07,7.07,0,0,0,28,2Z" fill="#428dff"/><path d="M24.72,27.23a3,3,0,0,0,1.81,1.14c1.22,0,1.63,2-2.45,1.63a13.45,13.45,0,0,1-2.68-.48h0" fill="#7fa8f6"/><path d="M29.7,8.93c0,.13-.09.27-.14.44a3.25,3.25,0,0,1-.57,1,2.77,2.77,0,0,1-.91.72,3.45,3.45,0,0,1-1.34.27,3.22,3.22,0,0,0-1.33.29,3.31,3.31,0,0,0-1.3,4.13c1,2.95,2.16,5.86,1.57,9.08a5.61,5.61,0,0,1-3.37,4.3,8.38,8.38,0,0,1-2.67.56c-.91.07-1.84.05-2.73.07H16.7c.51,0,1,0,1.55-.06a8.37,8.37,0,0,0,2.66-.56,5.64,5.64,0,0,0,3.38-4.3c.59-3.22-.54-6.13-1.58-9.08A3.31,3.31,0,0,1,24,11.66a3.22,3.22,0,0,1,1.33-.29,3.64,3.64,0,0,0,1.34-.27,2.77,2.77,0,0,0,.91-.72,3.25,3.25,0,0,0,.57-1,4.3,4.3,0,0,0,.14-.44.39.39,0,0,0-.25-.5h0c-.88-.26-3-.87-3.86-1-.3-.07-.59-.12-.85-.16a5.89,5.89,0,0,1,2.25.16c.88.18,3,.79,3.85,1a.4.4,0,0,1,.28.5Z" fill="#7fa8f6"/><path d="M28.3,8.93a4.3,4.3,0,0,1-.14.44,3.25,3.25,0,0,1-.57,1,2.64,2.64,0,0,1-.91.72,3.65,3.65,0,0,1-1.34.28,3.22,3.22,0,0,0-1.33.29,3.3,3.3,0,0,0-1.3,4.12c1,3,2.16,5.87,1.57,9.08a5.62,5.62,0,0,1-3.37,4.3,8.37,8.37,0,0,1-2.66.56c-.52,0-1,.05-1.55.05l-4.37-.29a5.27,5.27,0,0,1-4-2.67c-1-2.25-.78-5.12-.43-7.49.26-1.72.7-4.55,1.72-6A4.2,4.2,0,0,1,9.44,8.2a6,6,0,0,1,.4-.46.4.4,0,0,1,.56,0,4,4,0,0,1,1.3,3.36,5.65,5.65,0,0,1-.22,1.07.08.08,0,0,0,0,0l0,0a4.71,4.71,0,0,1,2.41-1.32,4,4,0,0,1,2.51.37.42.42,0,0,1,.2.53,4.16,4.16,0,0,1-4.54,2.36l-.32,0,0,.09A8.85,8.85,0,0,0,11,18.65a3.2,3.2,0,0,0,2.54,2.71,3.76,3.76,0,0,0,1.11,0,8.22,8.22,0,0,0,2-.56l.53-.22.31-.22.24-.33c.22-.34.45-.7.67-1.09a20.66,20.66,0,0,0,1.8-5.47c.4-1.85.58-3.34.58-3.34a5.56,5.56,0,0,1,.7-1.71,2.76,2.76,0,0,1,1.41-1.13l.45-.12c.27,0,.55.09.85.16.88.18,3,.79,3.86,1a.4.4,0,0,1,.27.5Z" fill="#d0ddf0"/><path d="M12.08,14.1l-.36,0a.36.36,0,0,0,0-.09Z" fill="#9a9a9a"/><path d="M18.93,26.33a.2.2,0,0,1,.2.2.17.17,0,0,1,0,.07c-.34,1-1.74,4.21-5.21,4.21-4,0-.52-2,.76-4.38a.19.19,0,0,1,.17-.1Z" fill="#d0ddf0"/><path d="M25.34,8.79a.82.82,0,0,1-.82.82.82.82,0,0,1-.81-.82A.81.81,0,0,1,24.52,8a.82.82,0,0,1,.82.81Z" fill="#fff"/><path d="M24.52,8.38a.4.4,0,0,1-.4.41.42.42,0,0,1-.38-.24A.88.88,0,0,1,24.28,8,.4.4,0,0,1,24.52,8.38Z" fill="#fff"/><path d="M12.7,29.18a3.63,3.63,0,0,1-3.17-2.36c-1-2.25-.78-5.12-.43-7.49.26-1.72.71-4.55,1.72-6a4.19,4.19,0,0,1-.15-5.15,1,1,0,0,1,.08-.11,4,4,0,0,0-.35-.37.41.41,0,0,0-.56,0c-.14.15-.27.31-.4.47a4.2,4.2,0,0,0,.16,5.15c-1,1.43-1.46,4.26-1.72,6-.35,2.37-.61,5.24.43,7.49a5.27,5.27,0,0,0,4,2.67c-.56.81-.12.39.37-.31Z" fill="#fff"/><path d="M25.66,30l-.36,0a13.58,13.58,0,0,1-2.68-.48h0l.13-.09a7.94,7.94,0,0,1-1,.2,16.2,16.2,0,0,0,2.3.37A8.33,8.33,0,0,0,25.66,30Z" fill="#fff"/><path d="M7.94,27a11.07,11.07,0,0,1-.73-5.4c.06-.78.15-1.56.27-2.32l.8.12c-.11.75-.21,1.51-.26,2.26a10.54,10.54,0,0,0,.65,5Z" fill="#fff"/><path d="M24.93,8.79a.41.41,0,1,1-.81,0,.41.41,0,0,1,.4-.41h0A.41.41,0,0,1,24.93,8.79Z" fill="#428dff"/><path d="M25.6,12a3,3,0,0,1,1.19-.24,3.92,3.92,0,0,0,1.47-.32,3.05,3.05,0,0,0,1-.81,3.61,3.61,0,0,0,.64-1.15c.23-.65.26-.78.27-.82A.46.46,0,0,0,30,8.15l-.15,0-.91-.27c-1.26-.37-2.34-.7-3.24-.89a5.22,5.22,0,0,0-2.93,0,3.16,3.16,0,0,0-1.62,1.28,5.88,5.88,0,0,0-.74,1.84s0,0,0,0-.19,1.49-.57,3.3A19.84,19.84,0,0,1,18,18.78a17.09,17.09,0,0,1-.94,1.45l-.08,0a9.76,9.76,0,0,1-2.43.74,2.82,2.82,0,0,1-3.2-2.35v-.06A8.55,8.55,0,0,1,12,14.49a6.68,6.68,0,0,0,.77.07,4.56,4.56,0,0,0,4.37-3,.37.37,0,0,0,0-.15c0-.17,0-.33-.81-.67a4.39,4.39,0,0,0-4.26.42,4.44,4.44,0,0,0-1.78-4,.42.42,0,0,0-.5,0,4.55,4.55,0,0,0-.71,6.18c-1,1.6-1.4,4.38-1.63,5.91-.12.76-.21,1.54-.27,2.32l0,.42a.4.4,0,0,0,.38.42h0A.4.4,0,0,0,8,22.05l0-.4c.06-.75.15-1.5.26-2.26.24-1.54.67-4.41,1.65-5.8v0l0-.08,0-.07v-.15a1,1,0,0,0-.07-.15h0A3.76,3.76,0,0,1,10.13,8a3.63,3.63,0,0,1,1,4,.14.14,0,0,0,0,.07.4.4,0,0,0,.29.49.42.42,0,0,0,.39-.1l0,0a3.72,3.72,0,0,1,4.46-.89,3.79,3.79,0,0,1-4.4,2.08h-.11a.23.23,0,0,0-.14,0l-.07,0,0,0a.18.18,0,0,0-.05.07h0a9.12,9.12,0,0,0-.82,4.86,3.61,3.61,0,0,0,3.63,3.11,3.71,3.71,0,0,0,.47,0,6.91,6.91,0,0,0,1.43-.33c-.2.22-.4.44-.6.64a.41.41,0,0,0,0,.58.4.4,0,0,0,.57,0,.08.08,0,0,0,0,0,16.55,16.55,0,0,0,2.67-3.5,20.45,20.45,0,0,0,1.84-5.6c.37-1.71.56-3.14.59-3.34a4.92,4.92,0,0,1,.63-1.56,2.35,2.35,0,0,1,1.21-1,4.55,4.55,0,0,1,2.48.06c.87.19,1.94.5,3.17.87l.64.19c0,.1-.08.23-.14.4a2.86,2.86,0,0,1-.49.89,2.3,2.3,0,0,1-.78.61,3.46,3.46,0,0,1-1.19.24,3.6,3.6,0,0,0-1.49.33,3.72,3.72,0,0,0-1.49,4.62l.17.48c1,2.81,1.92,5.46,1.39,8.39a5.25,5.25,0,0,1-3.14,4,7.84,7.84,0,0,1-2.53.54c-.56,0-1.12,0-1.68.05a8.21,8.21,0,0,0,1.66-2.95.4.4,0,0,0-.77-.25.06.06,0,0,0,0,0s-1.19,4.18-4.91,4.18c-1.3,0-1.46-.21-1.47-.22a1,1,0,0,1,.24-.48h0c.21-.3.52-.66.77-.95a11.31,11.31,0,0,0,1.64-2.24.41.41,0,1,0-.73-.37,10.83,10.83,0,0,1-1.53,2.08c-.25.29-.47.56-.67.81a4.62,4.62,0,0,1-3.48-2.39,7.25,7.25,0,0,1-.48-1.45.42.42,0,0,0-.47-.32.4.4,0,0,0-.33.46v0A7.74,7.74,0,0,0,7.93,27a5.37,5.37,0,0,0,3.78,2.77.92.92,0,0,0,0,.76c.22.49.88.7,2.21.7a5.1,5.1,0,0,0,3.12-1h.75c.61,0,1.26,0,1.9-.05a9.64,9.64,0,0,0,1.6-.23h0A13.56,13.56,0,0,0,24,30.4a9.58,9.58,0,0,0,1,.06c1.27,0,2.16-.29,2.53-.85a1,1,0,0,0,.06-1A1.24,1.24,0,0,0,26.53,28a2.28,2.28,0,0,1-1.29-.78,6.49,6.49,0,0,0,.85-2.24c.58-3.15-.44-6-1.42-8.81l-.17-.48A2.92,2.92,0,0,1,25.6,12Zm.92,16.75a.49.49,0,0,1,.42.2.19.19,0,0,1,0,.19c-.21.31-1.06.61-2.8.43q-.78-.07-1.38-.18a5.84,5.84,0,0,0,2-1.57,2.75,2.75,0,0,0,1.76.93Z" fill="#428dff"/><path d="M7.54,24.06h.08a.41.41,0,0,0,.25-.71l-.14-.08a.4.4,0,0,0-.15,0,.43.43,0,0,0-.29.13.46.46,0,0,0-.11.3.44.44,0,0,0,.14.29l.07.05.07,0,.08,0Z" fill="#428dff"/><path d="M21.66,28a.42.42,0,0,0,.21-.06c2.21-1.33,2.23-5.87,2.23-6.06a.41.41,0,0,0-.81,0c0,1.18-.33,4.45-1.84,5.36a.41.41,0,0,0,.21.76Z" fill="#428dff"/><path d="M11.81,28a.4.4,0,0,0,.46-.34.41.41,0,0,0-.34-.46s-2.51-.41-2.51-4.49a.42.42,0,0,0-.42-.4.41.41,0,0,0-.39.4C8.61,27.44,11.78,28,11.81,28Z" fill="#428dff"/></svg>