<svg xmlns="http://www.w3.org/2000/svg" viewBox="0 0 37 37"><rect x="0.36" y="0.36" width="36.28" height="36.28" rx="8.66" fill="#9ffff0"/><path d="M28,37H9a9,9,0,0,1-9-9V9A9,9,0,0,1,9,0H28a9,9,0,0,1,9,9V28A9,9,0,0,1,28,37ZM9,2A7.07,7.07,0,0,0,2,9V28A7.07,7.07,0,0,0,9,35H28A7.07,7.07,0,0,0,35,28V9A7.07,7.07,0,0,0,28,2Z" fill="#428dff"/><path d="M29.24,18.16v2.35a2.66,2.66,0,0,1-1.47,2.37l-3,1.48H12.4l-3-1.48A2.66,2.66,0,0,1,8,20.51V18.16" fill="#dfe3ee" stroke="#428dff"/><path d="M28.35,12h.81a2.72,2.72,0,0,1,1.78,4.8l-8.35,7.16h-8L6.26,16.76A2.73,2.73,0,0,1,8,12h.81" fill="#dfe3ee" stroke="#428dff"/><path d="M25.25,9.3h.26a3.28,3.28,0,0,1,3.29,3.28,3.38,3.38,0,0,1-.72,2.05l-6.38,8H15.5l-6.37-8A3.28,3.28,0,0,1,11.69,9.3H12" fill="#dfe3ee" stroke="#428dff"/><path d="M21.71,7.08h.22a3.33,3.33,0,0,1,3.32,3.33A3.28,3.28,0,0,1,25,11.68l-4.17,10H16.39l-4.18-10a3.33,3.33,0,0,1,3.07-4.6h.22" fill="#dfe3ee" stroke="#428dff"/><path d="M17.72,21.71,15.5,8.85V7.08a1.77,1.77,0,0,1,1.77-1.77h2.66a1.78,1.78,0,0,1,1.78,1.77h0V8.85L19.49,21.71" fill="#dfe3ee" stroke="#428dff"/><path d="M22.75,24.12c5.31.52,9.15,2,9.15,3.79,0,2.2-5.95,4-13.3,4s-13.29-1.79-13.29-4c0-1.77,3.84-3.27,9.15-3.79" fill="#dfe3ee" stroke="#428dff"/><path d="M23,25.69a4.43,4.43,0,1,1-4.43-4.43h0A4.43,4.43,0,0,1,23,25.69Z" fill="#dfe3ee" stroke="#428dff"/><path d="M18.6,31.9c7.35,0,13.3-1.79,13.3-4L29,28.69a15.43,15.43,0,0,1-9.5-.44l-1.84-.69a15.48,15.48,0,0,0-9.49-.44l-2.88.79C5.31,30.11,11.26,31.9,18.6,31.9Z" fill="#dfe3ee" stroke="#428dff"/><path d="M21.71,25.69h-.89a2.21,2.21,0,0,0-2.22-2.21v-.89A3.11,3.11,0,0,1,21.71,25.69Z" fill="#428dff"/></svg>