<svg xmlns="http://www.w3.org/2000/svg" viewBox="0 0 37 37"><rect x="0.36" y="0.36" width="36.28" height="36.28" rx="8.66" fill="#9ffff0"/><path d="M28,37H9a9,9,0,0,1-9-9V9A9,9,0,0,1,9,0H28a9,9,0,0,1,9,9V28A9,9,0,0,1,28,37ZM9,2A7.07,7.07,0,0,0,2,9V28A7.07,7.07,0,0,0,9,35H28A7.07,7.07,0,0,0,35,28V9A7.07,7.07,0,0,0,28,2Z" fill="#428dff"/><circle cx="18.36" cy="17.43" r="9.73" fill="#dfe3ee"/><circle cx="18.36" cy="17.43" r="9.46" fill="none" stroke="#428dff" stroke-linecap="round" stroke-linejoin="round" stroke-width="1.5"/><path d="M29.36,28.31H7.26l.64-6.53H28.72Z" fill="#dfe3ee"/><path d="M8.46,22.4l-.52,5.29H28.68l-.52-5.29H8.46M7.33,21.17h22L30,28.92H6.58Z" fill="#428dff"/></svg>