<svg xmlns="http://www.w3.org/2000/svg" viewBox="0 0 37 37"><rect x="0.6" y="0.59" width="35.81" height="35.81" rx="7.09" fill="#9ffff0"/><path d="M29.32,37H7.68A7.69,7.69,0,0,1,0,29.32V7.68A7.69,7.69,0,0,1,7.68,0H29.32A7.69,7.69,0,0,1,37,7.68V29.32A7.69,7.69,0,0,1,29.32,37ZM7.68,1.94A5.74,5.74,0,0,0,1.94,7.68V29.32a5.74,5.74,0,0,0,5.74,5.74H29.32a5.74,5.74,0,0,0,5.74-5.74V7.68a5.74,5.74,0,0,0-5.74-5.74Z" fill="#428dff"/><path d="M31,29.81a5.11,5.11,0,0,1-5.11,5.12h0l-2,1.09H13l-2-1.09a5.11,5.11,0,0,1-.44-10.21L15,24.34h7l4.38.38A5.11,5.11,0,0,1,31,29.81Z" fill="#cad9fc"/><path d="M29.38,29.81a5.12,5.12,0,0,1-5.11,5.12h0L22.3,36H13l-2-1.08a5.11,5.11,0,0,1-.44-10.21L15,24.34h5.32l4.38.38A5.11,5.11,0,0,1,29.38,29.81Z" fill="#e8edfc"/><path d="M27.74,32.2v2.18l-.18.27a5.26,5.26,0,0,1-1.66.28l-2,1.08H13l-2-1.09a4.9,4.9,0,0,1-1.66-.27l-.19-.27V32.2a1.09,1.09,0,0,1,1.09-1.09H26.66a1.09,1.09,0,0,1,1.09,1.09h0Z" fill="#cad9fc"/><path d="M22.3,25.13A6.22,6.22,0,0,1,19,26.72a3.27,3.27,0,0,1-.54,0,6,6,0,0,1-3.81-1.64,7.59,7.59,0,0,0,.33-.78,11.1,11.1,0,0,0,.61-2.48c0-.17.05-.33.07-.48h5.59a12.48,12.48,0,0,0,.68,3A8,8,0,0,0,22.3,25.13Z" fill="#a4c2f7"/><path d="M20.67,25.62A6.46,6.46,0,0,1,19,26.72a3.27,3.27,0,0,1-.54,0,6,6,0,0,1-3.81-1.64,6.91,6.91,0,0,0,.33-.79,10.89,10.89,0,0,0,.61-2.47h4a12,12,0,0,0,.68,3A5.65,5.65,0,0,0,20.67,25.62Z" fill="#cad9fc"/><path d="M26.66,30v4.35A1.64,1.64,0,0,1,25,36H12a1.63,1.63,0,0,1-1.63-1.63V30" fill="#e8edfc"/><path d="M25.57,14.78a29,29,0,0,0,.54-4.36c0-1.63-1.09-3.26-2.72-4.9a2.7,2.7,0,0,1-.55,1.64s0-1.09-1.63-2.18a1.69,1.69,0,0,1-.55,1.09,3.76,3.76,0,0,0-2.17-1.64,3.79,3.79,0,0,0-2.18,1.64A1.69,1.69,0,0,1,15.76,5c-1.63,1.09-1.63,2.18-1.63,2.18a2.63,2.63,0,0,1-.54-1.64c-1.64,1.64-2.73,3.27-2.73,4.9a29,29,0,0,0,.55,4.36Z" fill="#a4c2f7"/><path d="M26.11,10.42a22.08,22.08,0,0,1-.74,4.36H24a25.6,25.6,0,0,0,.63-4.36c0-1.38-.9-2.76-2.34-4.15a2.36,2.36,0,0,0,.13-.75c2.21,1.64,3.68,3.27,3.68,4.9Z" fill="#7facfa"/><path d="M23.93,13.54c.37-.3,1.64-1.15,1.64,1.2s-1.43,2.66-2,2.74H13.38c-.54-.08-2-.5-2-2.74s1.26-1.5,1.64-1.2Z" fill="#cad9fc"/><path d="M23.93,12.94v.6a17.18,17.18,0,0,1-.42,3.92,9.88,9.88,0,0,1-.6,1.68c-.77,1.63-2.12,3.26-4.42,3.26a4.36,4.36,0,0,1-.81-.07h0a5.17,5.17,0,0,1-3.61-3.19,8.41,8.41,0,0,1-.6-1.68,16.63,16.63,0,0,1-.41-3.92c0-.19,0-.39,0-.6a7.75,7.75,0,0,1,.66-3.45A4.76,4.76,0,0,1,14,9a9.7,9.7,0,0,0,3.67.85h0c.26,0,.52,0,.8,0a12,12,0,0,0,3.15-.39A7.54,7.54,0,0,0,23,9a7,7,0,0,1,.94,3.94Z" fill="#cad9fc"/><path d="M22.3,12.94v.6a17.18,17.18,0,0,1-.42,3.92,9.88,9.88,0,0,1-.6,1.68,5.24,5.24,0,0,1-3.6,3.19h0a5.17,5.17,0,0,1-3.61-3.19,8.41,8.41,0,0,1-.6-1.68,16.63,16.63,0,0,1-.41-3.92c0-.19,0-.39,0-.6a7.75,7.75,0,0,1,.66-3.45,12,12,0,0,0,3.15.39c.28,0,.54,0,.8,0h0c.26,0,.52,0,.8,0a12,12,0,0,0,3.15-.39,7.75,7.75,0,0,1,.66,3.45Z" fill="#e8edfc"/><path d="M9.25,34.59l.16,0h0l.15.05.17,0,.27.06.17,0,.22,0A1.63,1.63,0,0,0,12,36h1.64A1.62,1.62,0,0,1,12,34.88l-.23,0-.17,0-.26-.06-.18,0-.15-.05h0l-.17,0a5.11,5.11,0,0,1,1.39-9.87l4.38-.38a11.68,11.68,0,0,0,.61-2.48l.06-.48h0a6.59,6.59,0,0,1-1.64-2.24,9,9,0,0,1-.59-1.65H15c-.54-.09-1.95-.51-2-2.71h0a29,29,0,0,1-.54-4.36A5.85,5.85,0,0,1,14,6.94a3,3,0,0,1-.37-1.42c-1.63,1.64-2.72,3.27-2.72,4.9a29,29,0,0,0,.54,4.36h0c0,2.2,1.43,2.62,2,2.71h.09a9,9,0,0,0,.59,1.65,6.59,6.59,0,0,0,1.64,2.24h0c0,.15,0,.31-.07.48A11.1,11.1,0,0,1,15,24.34l-4.37.38a5.11,5.11,0,0,0-1.39,9.87Z" fill="#fff"/><path d="M18.49,23c-2.12,0-3.83-1.24-4.93-3.58a11,11,0,0,1-.63-1.77,17.26,17.26,0,0,1-.43-4.05v-.61a7.47,7.47,0,0,1,1-4.24.55.55,0,0,1,.92.59l0,0a6.48,6.48,0,0,0-.84,3.63v.59a16.2,16.2,0,0,0,.4,3.8,7.93,7.93,0,0,0,.56,1.57c.92,2,2.24,3,3.94,3s3-1,3.93-3A8.63,8.63,0,0,0,23,17.33a15.6,15.6,0,0,0,.4-3.79c0-.2,0-.4,0-.6a6.48,6.48,0,0,0-.85-3.63.54.54,0,0,1,.13-.76.55.55,0,0,1,.76.13v0a7.41,7.41,0,0,1,1,4.24c0,.21,0,.42,0,.62a17.12,17.12,0,0,1-.43,4,10.11,10.11,0,0,1-.64,1.77C22.29,21.71,20.59,23,18.49,23Z" fill="#428dff"/><path d="M13.38,18H13.3c-.57-.08-2.44-.57-2.44-3.28,0-.4,0-1.64.82-2a1.63,1.63,0,0,1,1.71.41.54.54,0,0,1-.68.85,1,1,0,0,0-.56-.28s-.2.17-.2,1.05c0,1.72,1,2.12,1.51,2.21A.54.54,0,0,1,13.38,18Z" fill="#428dff"/><path d="M23.59,18a.53.53,0,0,1-.53-.55.54.54,0,0,1,.45-.53c.57-.09,1.51-.49,1.51-2.21,0-.88-.19-1.05-.2-1.05s-.25,0-.55.28a.55.55,0,0,1-.77-.07.54.54,0,0,1,.07-.76l0,0a1.63,1.63,0,0,1,1.71-.41c.81.39.81,1.63.81,2,0,2.71-1.86,3.2-2.43,3.29Z" fill="#428dff"/><path d="M10.68,25.26a4.58,4.58,0,0,0-4.15,4.1c0,.15,0,.3,0,.45H5.42a5.25,5.25,0,0,1,0-.56,5.67,5.67,0,0,1,5.14-5.08Z" fill="#fff"/><path d="M8.11,25.65a.58.58,0,0,0,.73.18,4.6,4.6,0,0,1,1.84-.57l-.09-1.09a5.83,5.83,0,0,0-2.29.71.52.52,0,0,0-.22.71l0,.06Z" fill="#428dff"/><path d="M5.42,29.82H6.51c0-.16,0-.31,0-.46a4,4,0,0,1,.08-.48.59.59,0,0,0-.4-.64.51.51,0,0,0-.65.35s0,0,0,.06q-.06.3-.09.6a5.44,5.44,0,0,0,0,.57Z" fill="#428dff"/><path d="M7.39,27.11a.55.55,0,0,0,.1-.37l0-.1a.31.31,0,0,0,0-.1.41.41,0,0,0,0-.09l-.07-.08a.5.5,0,0,0-.61-.06.58.58,0,0,0-.28.59.61.61,0,0,0,.09.2.36.36,0,0,0,.16.14.58.58,0,0,0,.41.07.48.48,0,0,0,.32-.2Z" fill="#428dff"/><path d="M10.64,25.26a.54.54,0,0,1-.55-.55.55.55,0,0,1,.5-.54L15,23.79a.53.53,0,0,1,.57.51.54.54,0,0,1-.48.58l-4.38.38Z" fill="#428dff"/><path d="M10.4,35.42h-.07a5.66,5.66,0,0,1-4.91-5.61A.53.53,0,0,1,6,29.26a.55.55,0,0,1,.56.53v0a4.57,4.57,0,0,0,4,4.53.54.54,0,0,1,.47.61.55.55,0,0,1-.54.47Z" fill="#428dff"/><path d="M26.57,35.42a.54.54,0,0,1-.54-.55.53.53,0,0,1,.47-.53,4.57,4.57,0,0,0-.21-9.08l-4.38-.38a.55.55,0,0,1,.1-1.09l4.38.38a5.66,5.66,0,0,1,.25,11.25Z" fill="#428dff"/><path d="M25,36.56H12a2.19,2.19,0,0,1-2.18-2.18V31.12a.55.55,0,1,1,1.09,0v3.29A1.09,1.09,0,0,0,12,35.47H25a1.09,1.09,0,0,0,1.09-1.09V31.12a.53.53,0,0,1,.53-.56.55.55,0,0,1,.56.53v3.29A2.19,2.19,0,0,1,25,36.56Z" fill="#428dff"/><path d="M18.49,27.3a6.54,6.54,0,0,1-4.2-1.79.53.53,0,0,1-.1-.63,6.66,6.66,0,0,0,.31-.73,12.1,12.1,0,0,0,.65-2.83.54.54,0,0,1,.62-.46.55.55,0,0,1,.46.58,13.2,13.2,0,0,1-.71,3.09q-.09.24-.18.45a4.64,4.64,0,0,0,6.29,0c-.06-.14-.12-.29-.18-.46a13.2,13.2,0,0,1-.71-3.09.55.55,0,0,1,1.08-.15v0a12.07,12.07,0,0,0,.65,2.84,6.81,6.81,0,0,0,.31.74.53.53,0,0,1-.1.63,6.49,6.49,0,0,1-4.19,1.79Z" fill="#428dff"/><path d="M25.57,14.24a.55.55,0,0,1-.55-.55.47.47,0,0,1,0-.17,11.63,11.63,0,0,0,.52-3.1,5.94,5.94,0,0,0-1.83-3.73,2.3,2.3,0,0,1-.51.85.55.55,0,0,1-.93-.38,2.19,2.19,0,0,0-.81-1.28,2.71,2.71,0,0,1-.44.57.54.54,0,0,1-.77,0,.45.45,0,0,1-.1-.14A3.26,3.26,0,0,0,18.49,5,3.15,3.15,0,0,0,16.8,6.32a.55.55,0,0,1-.74.23.45.45,0,0,1-.13-.1,2.42,2.42,0,0,1-.44-.57,2.15,2.15,0,0,0-.81,1.29.56.56,0,0,1-.35.49.54.54,0,0,1-.58-.12,2.17,2.17,0,0,1-.51-.85,5.94,5.94,0,0,0-1.83,3.73,11.18,11.18,0,0,0,.52,3.1.56.56,0,0,1-.36.68.55.55,0,0,1-.68-.34,12.51,12.51,0,0,1-.57-3.44c0-1.64.92-3.32,2.88-5.28a.55.55,0,0,1,.93.38,1.5,1.5,0,0,0,0,.22,5,5,0,0,1,1.31-1.21.55.55,0,0,1,.76.15.53.53,0,0,1,.09.3l0,.15a4.83,4.83,0,0,1,2-1.21.5.5,0,0,1,.34,0,4.79,4.79,0,0,1,2,1.21.94.94,0,0,0,0-.16A.56.56,0,0,1,21,4.5a.54.54,0,0,1,.55,0,5.07,5.07,0,0,1,1.32,1.21,1.94,1.94,0,0,0,0-.22.54.54,0,0,1,.93-.38c2,2,2.88,3.64,2.88,5.28a12.15,12.15,0,0,1-.57,3.44.55.55,0,0,1-.51.38Z" fill="#428dff"/><path d="M18.49,10.42a10.88,10.88,0,0,1-4.74-.93.54.54,0,0,1-.24-.73.54.54,0,0,1,.71-.25,9.8,9.8,0,0,0,4.27.82,9.76,9.76,0,0,0,4.26-.82.55.55,0,0,1,.73.27.55.55,0,0,1-.25.71,10.88,10.88,0,0,1-4.74.93Z" fill="#428dff"/></svg>